<svg width="92" height="29" viewBox="0 0 92 29" fill="none" xmlns="http://www.w3.org/2000/svg">
<path d="M83.6136 29C80.6589 29 78.7181 27.6385 78.3995 25.7846C78.1098 24.3942 78.9788 23.4093 80.0506 23.2644C81.2093 23.1196 82.1363 23.8438 82.3391 24.9445C82.5129 25.8715 82.0784 26.4508 82.1942 27.2909C82.3101 28.1599 82.8894 28.5655 83.6716 28.5365C85.4096 28.4786 86.9159 26.6247 86.9159 21.6712V19.2669C86.3656 20.8311 84.9172 22.6271 82.6867 22.6271C80.2824 22.6271 78.0519 20.7732 78.0519 16.9784V11.5615C78.0519 10.229 77.6463 9.59171 76.3428 9.56274V9.1572C78.1677 9.01236 80.4272 8.60681 82.1363 7.85365L82.426 8.02746V16.6308C82.426 19.0062 83.295 20.2518 84.7723 20.2518C85.989 20.2518 86.6842 19.209 86.9159 18.253V11.5615C86.9159 10.229 86.4814 9.59171 85.1779 9.56274V9.1572C87.0028 9.01236 89.2623 8.60681 90.9714 7.85365L91.2611 8.02746V21.0918C91.2611 26.5957 87.0029 29 83.6136 29Z" fill="black"/>
<path d="M68.7354 22.9458V22.5402C69.7492 22.5402 70.5024 21.9319 70.5024 20.02L70.6762 5.07276C70.6762 3.74025 70.2417 3.10296 68.9381 3.07399V2.66845C70.7631 2.52361 73.0226 2.11806 74.7316 1.36491L75.0213 1.50974V20.02C75.0213 21.9319 75.8034 22.5402 76.8173 22.5402V22.9458H68.7354Z" fill="black"/>
<path d="M64.494 6.17353C62.9877 6.17353 61.9448 5.07276 61.9448 3.50851C61.9448 2.06013 62.9877 0.959358 64.494 0.959358C66.0582 0.959358 67.0721 2.06013 67.0721 3.50851C67.0721 5.07276 66.0582 6.17353 64.494 6.17353ZM60.7861 22.9458V22.5402C61.8 22.5402 62.5532 21.9319 62.5532 20.02V11.5615C62.5532 10.229 62.1476 9.5917 60.8441 9.56274V9.15719C62.669 9.01235 64.9285 8.60681 66.6376 7.85365L66.9273 8.02746V20.02C66.9273 21.9319 67.6804 22.5402 68.6943 22.5402V22.9458H60.7861Z" fill="black"/>
<path d="M52.3407 22.9458V22.5402C53.5573 22.5402 54.4843 21.9319 54.2236 20.049L53.2966 13.1837C53.0359 11.3877 52.3117 10.1711 50.9213 10.1711C49.7336 10.1711 48.9804 11.0691 48.7777 12.1988C48.8356 12.5754 48.8646 12.9519 48.8646 13.3865V20.02C48.8646 21.9319 49.6177 22.5402 50.6316 22.5402V22.9458H42.8972V22.5402C43.8242 22.5402 44.5484 21.9319 44.5484 20.02V13.821C44.5484 11.3008 43.5925 10.1711 42.0862 10.1711C40.9564 10.1711 40.0584 11.0691 39.8267 12.025V20.02C39.8267 21.9319 40.5219 22.5402 41.4778 22.5402V22.9458H33.6855V22.5402C34.6994 22.5402 35.4526 21.9319 35.4526 20.02V11.5615C35.4526 10.229 35.047 9.59171 33.7435 9.56274V9.1572C35.5684 9.01236 37.8279 8.60681 39.537 7.85365L39.8267 8.02746V11.127C40.406 9.53378 41.9413 7.85365 44.1718 7.85365C46.1126 7.85365 47.9666 8.98339 48.6039 11.3587C49.1542 9.47584 50.7475 7.85365 53.0359 7.85365C55.5271 7.85365 57.1783 9.53377 57.7286 13.2416L58.7135 20.049C58.9743 21.9319 59.7564 22.5402 60.7702 22.5402V22.9458H52.3407Z" fill="black"/>
<path d="M27.2152 23.2354C23.0729 23.2354 20.292 19.7883 20.292 15.6459C20.292 11.2139 23.6233 7.85365 27.5918 7.85365C31.2128 7.85365 33.3274 10.6345 33.3274 13.5603H24.4633C24.4923 17.7606 26.7518 20.078 29.4747 20.049C31.7052 20.049 33.1536 18.5137 33.5012 16.9784L33.9068 17.0364C33.3853 20.5125 30.8362 23.2354 27.2152 23.2354ZM24.4633 13.0678H27.7946C28.7505 13.0678 29.0692 12.6333 29.0692 11.4456C29.0692 10.1131 28.6347 8.28817 27.3601 8.28817C25.9407 8.28817 24.6082 10.4607 24.4633 13.0678Z" fill="black"/>
<path d="M0 22.9458V22.5402C1.01387 22.5402 1.79599 21.9319 1.79599 20.02V5.59418C1.79599 3.65335 1.01387 3.074 0 3.074V2.66845H8.13989V3.074C7.12603 3.074 6.37287 3.65335 6.37287 5.59418V12.5174H13.7886V5.59418C13.7886 3.65335 13.0354 3.074 12.0216 3.074V2.66845H20.1614V3.074C19.1476 3.074 18.3655 3.65335 18.3655 5.59418V20.02C18.3655 21.9319 19.1476 22.5402 20.1614 22.5402V22.9458H12.0216V22.5402C13.0354 22.5402 13.7886 21.9319 13.7886 20.02V13.0678H6.37287V20.02C6.37287 21.9319 7.12603 22.5402 8.13989 22.5402V22.9458H0Z" fill="black"/>
</svg>
